<?xml version="1.0" standalone="no"?>
<!DOCTYPE svg PUBLIC "-//W3C//DTD SVG 20010904//EN"
 "http://www.w3.org/TR/2001/REC-SVG-20010904/DTD/svg10.dtd">
<svg version="1.0" xmlns="http://www.w3.org/2000/svg"
 width="160.000000pt" height="160.000000pt" viewBox="0 0 160.000000 160.000000"
 preserveAspectRatio="xMidYMid meet">
<metadata>
Created by potrace 1.11, written by Peter Selinger 2001-2013
</metadata>
<g transform="translate(0.000000,160.000000) scale(0.100000,-0.100000)"
fill="#000000" stroke="none">
<path d="M707 1299 c-26 -34 -47 -69 -47 -76 0 -7 -5 -13 -10 -13 -7 0 -8 -18
-4 -49 6 -46 5 -49 -26 -71 -18 -13 -49 -29 -69 -35 -28 -10 -54 -35 -118
-119 -75 -98 -81 -109 -76 -143 4 -34 0 -42 -32 -75 -21 -21 -53 -42 -71 -48
-26 -9 -58 -43 -139 -146 -58 -73 -105 -140 -105 -148 0 -7 6 -18 12 -24 7 -5
157 -35 333 -66 176 -31 332 -59 348 -62 23 -5 27 -2 27 16 0 12 35 72 78 133
42 62 111 164 152 227 40 63 90 136 109 163 l35 47 24 -30 c13 -16 30 -30 37
-30 81 0 140 142 101 244 l-17 44 95 138 c53 76 94 139 93 140 -1 2 -119 10
-262 18 -143 9 -296 18 -341 22 l-80 6 -47 -63z m349 -338 c-17 -18 -30 -44
-33 -70 -3 -22 -10 -38 -15 -35 -18 11 2 68 34 101 18 18 34 33 37 33 3 0 -8
-13 -23 -29z"/>
<path d="M1458 936 c-13 -29 -5 -56 16 -56 17 0 31 42 22 65 -8 22 -25 18 -38
-9z"/>
<path d="M1347 838 c-42 -32 -67 -155 -43 -211 13 -33 19 -37 50 -37 43 0 61
22 77 96 14 61 5 118 -22 145 -22 22 -39 24 -62 7z"/>
<path d="M1125 545 c-58 -62 -74 -95 -75 -148 l0 -38 73 3 72 3 6 60 c3 33 9
78 13 101 6 32 4 44 -9 57 -9 9 -19 17 -23 17 -4 0 -29 -25 -57 -55z"/>
</g>
</svg>
